<?xml version="1.0" standalone="no"?>
<!DOCTYPE svg PUBLIC "-//W3C//DTD SVG 20010904//EN"
 "http://www.w3.org/TR/2001/REC-SVG-20010904/DTD/svg10.dtd">
<svg version="1.0" xmlns="http://www.w3.org/2000/svg"
 width="570.000000pt" height="256.000000pt" viewBox="0 0 570.000000 256.000000"
 preserveAspectRatio="xMidYMid meet">

<g transform="translate(0.000000,256.000000) scale(0.100000,-0.100000)"
fill="#000000" stroke="none">
<path d="M0 1280 l0 -1280 2850 0 2850 0 0 1280 0 1280 -2850 0 -2850 0 0
-1280z m1458 1148 c7 -7 12 -21 12 -33 0 -12 -5 -26 -12 -33 -27 -27 -78 -7
-78 29 0 39 52 63 78 37z m2986 -4 c9 -8 16 -22 16 -29 0 -7 -7 -21 -16 -29
-30 -30 -74 -13 -74 29 0 42 44 59 74 29z m-1514 -224 l0 -230 -40 0 c-36 0
-40 3 -40 25 l0 24 -26 -24 c-30 -28 -100 -34 -144 -12 -90 44 -91 265 -1 311
54 28 127 17 158 -23 10 -13 12 -1 13 65 0 44 3 84 7 87 3 4 21 7 40 7 l33 0
0 -230z m240 201 c0 -25 -4 -30 -27 -33 -22 -2 -29 -9 -31 -30 -3 -25 0 -28
27 -28 29 0 31 -3 31 -35 0 -32 -2 -35 -30 -35 l-30 0 0 -135 0 -135 -40 0
-40 0 0 135 0 135 -25 0 c-22 0 -25 4 -25 35 0 31 3 35 25 35 22 0 25 4 25 35
0 53 36 85 95 85 43 0 45 -1 45 -29z m-1910 -50 c0 -37 2 -40 33 -43 28 -3 32
-6 32 -33 0 -27 -4 -30 -32 -33 l-33 -3 0 -79 c0 -99 11 -130 45 -130 21 0 25
-5 25 -30 0 -29 -2 -30 -46 -30 -87 0 -104 29 -104 176 0 88 -1 93 -22 96 -18
2 -23 10 -23 33 0 23 5 31 23 33 18 3 22 10 22 43 0 39 0 39 40 39 40 0 40 0
40 -39z m2990 -1 c0 -38 2 -40 30 -40 28 0 30 -3 30 -35 0 -32 -2 -35 -30 -35
l-30 0 0 -93 c0 -96 8 -117 42 -117 13 0 18 -8 18 -30 0 -29 -2 -30 -45 -30
-35 0 -52 6 -70 25 -24 23 -25 31 -25 135 l0 110 -26 0 c-23 0 -25 3 -22 33 2
24 8 33 26 35 18 3 22 10 22 43 0 39 0 39 40 39 l40 0 0 -40z m-3946 -55 c33
-16 66 -61 66 -89 0 -25 -66 -22 -80 4 -15 28 -54 42 -85 30 -60 -23 -73 -142
-20 -187 35 -31 61 -29 95 7 21 22 37 30 63 30 31 0 35 -2 30 -22 -18 -71 -72
-103 -163 -96 -94 7 -140 63 -140 170 0 102 60 168 152 168 28 0 64 -7 82 -15z
m352 -1 c52 -25 78 -75 78 -153 1 -115 -50 -171 -154 -171 -107 0 -162 57
-162 170 0 70 21 114 72 147 40 28 116 31 166 7z m214 -4 c0 -11 3 -20 6 -20
3 0 17 9 31 20 29 23 88 26 128 8 46 -21 55 -54 55 -198 l0 -130 -40 0 -40 0
0 113 c0 131 -10 157 -64 157 -58 0 -70 -25 -75 -156 l-3 -114 -39 0 -39 0 0
163 c0 90 3 167 7 170 3 4 21 7 40 7 26 0 33 -4 33 -20z m598 -152 l2 -168
-40 0 -40 0 0 171 0 170 38 -3 37 -3 3 -167z m152 150 c0 -21 1 -21 20 -3 12
11 41 20 73 23 45 4 57 1 81 -19 35 -31 45 -78 46 -211 l0 -108 -40 0 -40 0 0
93 c0 97 -11 155 -32 169 -23 14 -61 8 -85 -14 -21 -20 -23 -29 -23 -135 l0
-113 -40 0 -40 0 0 170 0 170 40 0 c34 0 40 -3 40 -22z m360 -85 c0 -119 12
-156 49 -161 73 -11 91 21 91 163 l0 105 40 0 40 0 0 -170 0 -170 -40 0 c-34
0 -40 3 -40 21 l0 20 -26 -20 c-30 -24 -97 -28 -138 -10 -44 20 -56 64 -56
203 l0 126 40 0 40 0 0 -107z m518 87 c37 -23 71 -88 72 -137 l0 -33 -115 0
c-109 0 -115 -1 -115 -20 0 -12 11 -32 25 -45 30 -31 77 -33 105 -5 23 23 90
28 90 6 0 -22 -37 -62 -70 -76 -18 -7 -54 -11 -90 -8 -94 7 -140 63 -140 170
0 103 60 168 154 168 33 0 62 -7 84 -20z m812 -2 l0 -22 20 22 c12 13 33 22
50 22 28 0 30 -3 30 -35 0 -31 -3 -35 -27 -35 -15 0 -37 -10 -50 -22 -21 -20
-23 -29 -23 -135 l0 -113 -40 0 -40 0 0 170 0 170 40 0 c34 0 40 -3 40 -22z
m360 7 c54 -28 60 -47 60 -192 l0 -133 -40 0 c-34 0 -40 3 -40 21 l0 20 -29
-20 c-19 -14 -45 -21 -76 -21 -38 0 -52 5 -76 29 -29 29 -38 76 -23 116 10 25
62 46 133 53 57 6 66 10 69 29 3 23 -30 53 -61 53 -10 0 -29 -11 -43 -25 -26
-26 -94 -36 -94 -15 0 27 34 73 63 85 42 19 121 19 157 0z m354 0 c33 -16 66
-61 66 -89 0 -25 -66 -22 -80 4 -15 28 -54 42 -85 30 -60 -23 -73 -142 -20
-187 35 -31 61 -29 95 7 21 22 37 30 63 30 31 0 35 -2 30 -22 -18 -71 -72
-103 -163 -96 -94 7 -140 63 -140 170 0 102 60 168 152 168 28 0 64 -7 82 -15z
m426 -155 l0 -170 -40 0 -40 0 0 163 c0 90 3 167 7 170 3 4 21 7 40 7 l33 0 0
-170z m310 147 c51 -33 72 -77 72 -147 0 -113 -55 -170 -162 -170 -89 0 -138
42 -155 133 -15 77 29 173 90 198 42 17 121 10 155 -14z m210 3 c0 -20 0 -20
33 0 39 24 104 26 136 4 40 -28 51 -73 51 -204 l0 -120 -39 0 -39 0 -4 121
c-3 106 -5 122 -22 135 -32 23 -72 17 -95 -12 -18 -23 -21 -41 -21 -135 l0
-109 -40 0 -40 0 0 170 0 170 40 0 c33 0 40 -3 40 -20z m521 -18 c41 -45 39
-72 -5 -72 -25 0 -38 6 -50 25 -19 29 -66 34 -90 9 -27 -27 -4 -49 71 -67 111
-27 145 -91 84 -159 -27 -30 -34 -33 -102 -36 -86 -4 -129 16 -147 67 l-11 31
42 0 c31 0 45 -5 55 -20 18 -29 87 -28 103 2 15 28 -5 43 -79 59 -117 24 -150
123 -60 180 27 16 46 19 97 16 57 -3 67 -7 92 -35z m-2253 -665 c9 -3 -5 -5
-33 -5 -39 -1 -45 1 -27 8 20 8 22 16 22 75 0 61 -2 65 -22 66 -20 1 -20 2 7
14 l30 13 3 -83 c2 -69 6 -84 20 -88z m-1934 -59 c8 -13 7 -23 -2 -39 -11 -18
-11 -24 4 -40 23 -25 11 -67 -21 -75 -40 -10 -77 3 -73 27 4 26 22 26 26 -1 4
-23 24 -26 42 -5 16 20 9 47 -17 60 -21 11 -21 11 -2 23 27 17 26 62 -1 62
-14 0 -20 -6 -18 -16 2 -10 -3 -19 -9 -21 -14 -5 -18 29 -6 41 13 13 66 1 77
-16z m237 -78 c21 0 39 -4 39 -10 0 -5 -18 -10 -40 -10 l-40 0 -2 -42 -1 -43
-4 43 c-4 42 -4 42 -44 42 -21 0 -39 5 -39 10 0 6 18 10 40 10 39 0 40 1 42
38 l1 37 4 -37 c4 -37 5 -38 44 -38z m-711 30 c0 -5 -9 -10 -21 -10 -18 0 -20
-5 -18 -47 2 -28 -1 -47 -6 -45 -6 1 -9 23 -8 48 2 59 -17 54 -35 -9 -7 -26
-17 -47 -23 -47 -13 0 -11 15 8 55 19 40 14 52 -16 35 -26 -13 -29 4 -3 19 22
13 122 14 122 1z m233 -17 c-23 -2 -64 -2 -90 0 -26 2 -7 3 42 3 50 0 71 -1
48 -3z m2905 -30 c-416 -2 -1100 -2 -1520 0 -420 1 -79 2 757 2 836 0 1179 -1
763 -2z m-2905 -20 c-23 -2 -64 -2 -90 0 -26 2 -7 3 42 3 50 0 71 -1 48 -3z
m2387 -113 c0 -65 3 -81 18 -89 13 -8 7 -10 -28 -10 -25 0 -39 3 -32 6 8 3 12
29 12 79 0 57 -3 74 -12 69 -7 -4 -4 1 6 9 11 9 23 16 28 16 4 0 8 -36 8 -80z
m-1600 -76 c0 -2 -11 -25 -25 -51 -13 -27 -27 -65 -30 -85 -3 -21 -10 -38 -15
-38 -18 0 -10 52 15 101 l24 49 -34 0 c-18 0 -36 -6 -38 -12 -3 -7 -6 -1 -6
13 -1 14 1 28 3 30 5 5 106 -1 106 -7z m221 -94 c21 0 39 -4 39 -10 0 -5 -18
-10 -40 -10 l-40 0 -2 -42 -1 -43 -4 43 c-4 42 -4 42 -44 42 -21 0 -39 5 -39
10 0 6 18 10 40 10 39 0 40 1 42 38 l1 37 4 -37 c4 -37 5 -38 44 -38z m2589
-10 c0 -7 -413 -10 -1220 -10 -807 0 -1220 3 -1220 10 0 7 413 10 1220 10 807
0 1220 -3 1220 -10z m-885 -191 c13 -5 1 -7 -35 -7 -30 0 -45 3 -32 5 20 4 22
10 22 74 0 65 -1 69 -22 70 -20 1 -20 2 7 14 l30 13 5 -80 c4 -69 8 -82 25
-89z m-1445 -69 c0 -65 3 -81 18 -89 13 -8 5 -10 -33 -10 -27 1 -42 3 -32 6
14 4 17 16 17 80 0 63 -2 74 -15 69 -8 -3 -15 -3 -15 0 0 5 39 22 53 23 4 1 7
-35 7 -79z m150 65 c-7 -8 -23 -15 -36 -15 -17 0 -24 -6 -24 -20 0 -11 5 -20
11 -20 5 0 7 -4 4 -10 -14 -23 -25 -7 -25 35 l0 45 41 0 c36 0 40 -2 29 -15z
m251 -85 c21 0 39 -4 39 -10 0 -5 -18 -10 -40 -10 l-40 0 -2 -42 -1 -43 -4 43
c-4 42 -4 42 -44 42 -21 0 -39 5 -39 10 0 6 18 10 40 10 39 0 40 1 42 38 l1
37 4 -37 c4 -37 5 -38 44 -38z m-243 18 c17 -17 15 -64 -4 -82 -18 -19 -55
-21 -72 -4 -15 15 -16 48 -2 48 6 0 10 -12 10 -26 0 -21 4 -25 23 -22 19 3 22
9 22 51 0 49 3 55 23 35z m2107 -28 c-4 -7 -302 -10 -861 -10 -563 0 -854 3
-854 10 0 7 294 10 861 10 571 0 858 -3 854 -10z m-587 -193 c9 -3 -5 -5 -33
-5 -27 0 -42 2 -32 5 14 4 17 16 17 74 0 59 -3 69 -17 70 -12 0 -7 5 12 14
l30 13 3 -83 c2 -69 6 -84 20 -88z m-1018 -67 c0 -66 3 -79 18 -83 9 -3 -5 -5
-33 -5 -27 0 -42 2 -32 5 14 4 17 16 17 74 0 59 -3 69 -17 69 -14 1 -12 4 7
14 14 8 28 12 32 10 5 -3 8 -41 8 -84z m263 -22 l42 -1 -42 -4 c-43 -4 -43 -4
-45 -46 l-1 -42 -4 43 c-4 42 -4 42 -46 44 l-42 1 43 4 c42 4 42 4 44 46 l1
42 4 -42 c4 -43 4 -43 46 -45z m1004 -5 c-158 -2 -416 -2 -575 0 -158 1 -28 2
288 2 316 0 446 -1 287 -2z m-27 -224 c0 -5 -7 -9 -15 -9 -15 0 -20 12 -9 23
8 8 24 -1 24 -14z m-692 -42 c23 -18 13 -58 -23 -91 -19 -18 -35 -35 -35 -39
0 -15 50 -6 60 11 9 14 10 12 8 -13 -3 -28 -6 -30 -50 -33 -31 -2 -48 1 -48 8
0 6 16 32 35 58 42 53 44 95 8 100 -18 3 -23 -2 -23 -17 0 -12 -4 -21 -10 -21
-5 0 -10 9 -10 20 0 35 52 45 88 17z m127 -2 c29 -28 33 -80 10 -125 -19 -37
-63 -51 -81 -25 -14 18 -10 35 7 35 5 0 9 -9 9 -20 0 -26 15 -25 34 2 21 30
20 41 -3 33 -10 -3 -28 2 -41 13 -30 24 -30 70 0 94 29 23 36 23 65 -7z m146
-7 c16 -29 3 -64 -31 -88 -17 -12 -30 -26 -30 -31 0 -16 49 -10 60 9 11 16 11
16 6 -1 -3 -10 -6 -25 -6 -33 0 -10 -13 -14 -45 -14 -25 0 -45 5 -45 11 0 5
16 31 35 57 42 53 44 95 8 100 -18 3 -23 -2 -23 -17 0 -12 -4 -21 -10 -21 -20
0 -10 41 12 49 30 11 56 3 69 -21z m199 -38 l0 -40 43 -2 42 -1 -42 -4 c-43
-4 -43 -4 -43 -44 0 -21 -4 -39 -10 -39 -5 0 -10 18 -10 40 l0 40 -42 2 -43 1
43 4 c42 4 42 4 42 44 0 21 5 39 10 39 6 0 10 -18 10 -40z m340 15 c0 -8 -7
-15 -15 -15 -16 0 -20 12 -8 23 11 12 23 8 23 -8z m120 -91 c0 -16 -16 -19
-25 -4 -8 13 4 32 16 25 5 -4 9 -13 9 -21z"/>
<path d="M2722 2217 c-28 -30 -37 -77 -22 -121 13 -41 35 -56 79 -56 58 0 91
93 56 159 -24 47 -78 56 -113 18z"/>
<path d="M554 2239 c-35 -12 -54 -49 -54 -102 0 -40 5 -53 29 -78 36 -35 64
-37 96 -4 21 20 25 34 25 83 0 48 -4 62 -22 79 -30 26 -48 32 -74 22z"/>
<path d="M2382 2243 c-11 -4 -42 -54 -42 -68 0 -7 135 -6 143 1 9 10 -20 61
-38 68 -19 7 -44 7 -63 -1z"/>
<path d="M3565 2113 c-67 -17 -55 -83 15 -83 27 0 70 43 70 70 0 16 -6 20 -32
19 -18 -1 -42 -4 -53 -6z"/>
<path d="M4660 2242 c-8 -2 -25 -14 -37 -25 -19 -17 -23 -31 -23 -79 0 -49 4
-63 25 -83 27 -28 42 -30 78 -14 32 14 47 49 47 103 0 64 -44 112 -90 98z"/>
<path d="M3604 276 c-8 -35 4 -66 26 -66 22 0 34 31 26 66 -4 15 -14 24 -26
24 -12 0 -22 -9 -26 -24z"/>
</g>
</svg>
